<?xml version="1.0" encoding="UTF-8" ?>
<!DOCTYPE svg PUBLIC "-//W3C//DTD SVG 1.1//EN" "http://www.w3.org/Graphics/SVG/1.1/DTD/svg11.dtd">
<svg width="240pt" height="240pt" viewBox="0 0 240 240" version="1.1" xmlns="http://www.w3.org/2000/svg">
<g id="#000000ff">
<path fill="#000000" opacity="1.00" d=" M 114.14 2.25 C 128.96 -1.24 144.89 9.24 148.03 24.01 C 152.39 39.74 141.20 57.69 124.95 60.13 C 110.10 63.18 94.57 52.22 91.79 37.47 C 88.02 22.21 98.59 5.16 114.14 2.25 Z" />
<path fill="#000000" opacity="1.00" d=" M 12.46 68.39 C 39.93 68.40 67.40 68.39 94.87 68.40 C 94.87 80.10 94.84 91.81 94.88 103.51 C 79.93 103.54 64.97 103.53 50.02 103.51 C 64.12 114.19 78.35 124.71 92.36 135.49 C 105.09 117.54 118.23 99.88 131.05 81.99 C 136.83 73.66 146.82 68.40 156.97 68.36 C 180.53 68.35 204.08 68.36 227.64 68.36 C 231.77 79.99 235.69 91.70 240.00 103.27 L 240.00 103.58 C 222.96 119.04 205.80 134.37 188.76 149.84 C 193.99 173.14 199.22 196.44 204.37 219.76 C 196.30 225.56 188.34 231.51 180.26 237.29 C 179.21 238.00 178.41 239.00 177.63 240.00 L 176.17 240.00 C 175.44 239.33 174.70 238.69 173.94 238.07 C 155.96 225.20 137.96 212.35 120.01 199.44 C 104.97 210.57 89.90 221.67 74.86 232.80 C 71.75 235.12 68.46 237.22 65.73 240.00 L 64.33 240.00 C 61.56 236.93 58.03 234.74 54.77 232.25 C 48.54 227.54 42.26 222.88 36.03 218.16 C 41.25 195.38 46.24 172.54 51.37 149.73 C 34.27 134.34 17.10 119.02 0.00 103.63 L 0.00 103.34 C 4.34 91.76 8.30 80.04 12.46 68.39 M 159.52 103.38 C 146.35 120.99 133.18 138.61 120.00 156.21 C 134.88 167.45 149.81 178.63 164.69 189.87 C 158.83 171.98 153.00 154.09 147.09 136.22 C 161.75 125.28 176.63 114.61 191.16 103.50 C 180.61 103.49 170.07 103.37 159.52 103.38 M 92.25 135.65 C 86.31 153.71 80.39 171.79 74.47 189.86 C 89.66 178.65 104.84 167.44 120.02 156.23 C 110.72 149.43 101.82 142.06 92.25 135.65 Z" />
</g>
</svg>
