<svg width="511" height="512" viewBox="0 0 511 512" fill="none" xmlns="http://www.w3.org/2000/svg">
<path d="M404.543 0H106.459C47.6637 0 0 47.7564 0 106.667V405.333C0 464.243 47.6637 512 106.459 512H404.543C463.338 512 511.002 464.243 511.002 405.333V106.667C511.002 47.7564 463.338 0 404.543 0Z" fill="#53F291"/>
<path d="M282.622 85.3325C285.311 85.3317 287.329 87.7995 286.797 90.4419L235.235 346.888C234.705 349.529 236.721 351.997 239.41 351.997H363.217C366.005 351.997 368.04 354.636 367.34 357.339L350.33 422.832C349.844 424.707 348.156 426.019 346.222 426.026L147.504 426.651C144.809 426.659 142.784 424.187 143.316 421.539L210.29 88.7757C210.69 86.7849 212.436 85.353 214.463 85.3524L282.622 85.3325Z" fill="white"/>
</svg>
