<?xml version="1.0" encoding="UTF-8" ?>
<!DOCTYPE svg PUBLIC "-//W3C//DTD SVG 1.1//EN" "http://www.w3.org/Graphics/SVG/1.1/DTD/svg11.dtd">
<svg width="383pt" height="383pt" viewBox="0 0 383 383" version="1.1" xmlns="http://www.w3.org/2000/svg">
<g id="#072d2eff">
<path fill="#072d2e" opacity="1.00" d=" M 56.46 1.75 C 60.29 1.11 64.16 0.77 68.04 0.75 C 150.69 0.76 233.33 0.73 315.98 0.76 C 331.64 0.91 347.22 6.70 359.04 17.00 C 374.29 29.91 383.13 50.00 382.25 69.98 C 382.25 151.64 382.23 233.30 382.26 314.97 C 382.57 330.07 377.23 345.11 367.88 356.93 C 357.65 369.91 342.47 378.90 326.13 381.47 C 320.16 382.56 314.08 382.20 308.06 382.25 C 227.04 382.25 146.01 382.25 64.99 382.25 C 49.97 381.77 35.28 375.84 23.93 366.03 C 9.49 353.71 0.89 334.99 0.76 316.02 C 0.74 239.36 0.75 162.70 0.75 86.03 C 0.95 73.71 -0.27 61.08 3.41 49.11 C 10.16 24.94 31.63 5.65 56.46 1.75 M 169.80 96.72 C 154.07 109.39 143.31 128.04 140.20 148.00 C 138.59 157.40 139.50 166.97 139.22 176.46 C 127.16 176.59 115.09 176.38 103.02 176.56 C 85.92 177.28 71.23 192.85 71.46 209.97 C 70.74 227.08 84.94 243.02 102.01 244.28 C 114.41 244.83 126.84 244.28 139.24 244.56 C 139.25 256.04 139.26 267.52 139.23 279.01 C 139.22 289.99 145.27 300.62 154.41 306.61 C 165.63 314.12 181.31 314.03 192.39 306.28 C 201.33 300.21 207.00 289.74 207.19 278.93 C 207.36 267.47 207.16 256.00 207.28 244.54 C 215.18 244.34 223.10 244.87 230.97 244.01 C 245.54 242.59 259.67 237.14 271.46 228.47 C 286.56 217.55 297.70 201.33 302.61 183.36 C 307.82 164.27 306.11 143.27 297.47 125.43 C 290.84 111.36 280.12 99.27 266.96 90.98 C 251.38 80.96 232.33 76.56 213.92 78.48 C 197.84 80.03 182.29 86.48 169.80 96.72 Z" />
</g>
<g id="#4de686ff">
<path fill="#4de686" opacity="1.00" d=" M 169.80 96.72 C 182.29 86.48 197.84 80.03 213.92 78.48 C 232.33 76.56 251.38 80.96 266.96 90.98 C 280.12 99.27 290.84 111.36 297.47 125.43 C 306.11 143.27 307.82 164.27 302.61 183.36 C 297.70 201.33 286.56 217.55 271.46 228.47 C 259.67 237.14 245.54 242.59 230.97 244.01 C 223.10 244.87 215.18 244.34 207.28 244.54 C 207.16 256.00 207.36 267.47 207.19 278.93 C 207.00 289.74 201.33 300.21 192.39 306.28 C 181.31 314.03 165.63 314.12 154.41 306.61 C 145.27 300.62 139.22 289.99 139.23 279.01 C 139.26 267.52 139.25 256.04 139.24 244.56 C 126.84 244.28 114.41 244.83 102.01 244.28 C 84.94 243.02 70.74 227.08 71.46 209.97 C 71.23 192.85 85.92 177.28 103.02 176.56 C 115.09 176.38 127.16 176.59 139.22 176.46 C 139.50 166.97 138.59 157.40 140.20 148.00 C 143.31 128.04 154.07 109.39 169.80 96.72 M 139.61 176.48 C 139.69 199.02 139.61 221.56 139.65 244.10 C 162.18 244.07 184.71 244.09 207.25 244.09 C 207.15 232.09 207.47 220.08 207.08 208.08 C 206.37 191.74 192.20 177.48 175.87 176.57 C 163.79 176.38 151.70 176.58 139.61 176.48 Z" />
</g>
<g id="#ffffffff">
<path fill="#ffffff" opacity="1.00" d=" M 139.61 176.48 C 151.70 176.58 163.79 176.38 175.87 176.57 C 192.20 177.48 206.37 191.74 207.08 208.08 C 207.47 220.08 207.15 232.09 207.25 244.09 C 184.71 244.09 162.18 244.07 139.65 244.10 C 139.61 221.56 139.69 199.02 139.61 176.48 Z" />
</g>
</svg>
