<svg width="469" height="512" viewBox="0 0 469 512" fill="none" xmlns="http://www.w3.org/2000/svg">
<path d="M318.435 10.4243V223.631C318.435 229.375 313.776 234.034 308.032 234.034H236.27L235.913 244.066C235.119 266.645 232.009 288.867 226.794 310.441C225.656 315.126 221.487 318.435 216.669 318.435H10.4243C1.15962 318.435 -3.48595 307.224 3.0655 300.673L300.673 3.06549C307.225 -3.48595 318.435 1.15962 318.435 10.4243Z" fill="#2ED287"/>
<path d="M458.516 261.841C464.565 261.841 469.356 266.989 468.893 273.025C464.803 325.727 444.964 374.009 414.059 413.159C397.039 434.733 376.67 453.54 353.72 468.787C312.651 496.104 263.363 512 210.356 512C182.178 512 155.072 507.513 129.687 499.202C121.044 496.369 119.893 484.59 127.874 480.209C134.332 476.662 140.632 472.85 146.76 468.787C199.238 433.925 238.282 380.349 254.469 317.654C259.114 299.72 261.88 281.045 262.555 261.841H458.503H458.516Z" fill="white"/>
</svg>
